<svg width="40" height="41" viewBox="0 0 40 41" fill="none" xmlns="http://www.w3.org/2000/svg">
<g id="Product Icons">
<circle id="Ellipse 197" cx="20" cy="20.5" r="20" fill="#E5D6F5"/>
<path id="Travel" d="M11.6647 22.1149C11.6688 22.0938 11.6709 22.0748 11.6729 22.0536C11.6403 21.8338 11.4794 21.6457 11.2574 21.5865C11.1555 21.559 11.0965 21.5316 11.0741 21.5189L11.0598 21.5083C11.0598 21.5083 11.0456 21.4829 11.0354 21.4111C11.0252 21.3413 11.017 21.2293 11.017 21.0835C11.017 21.0708 11.017 21.0644 11.017 21.0539C11.017 21.0327 11.017 21.0116 11.017 20.9862C11.017 20.9757 11.017 20.9672 11.017 20.9566C11.017 20.9461 11.017 20.9376 11.017 20.9271C11.017 20.9038 11.017 20.8827 11.017 20.8594C11.017 20.8489 11.017 20.8404 11.017 20.8298C11.017 20.684 11.0232 20.572 11.0354 20.5022C11.0456 20.4325 11.0598 20.4071 11.0598 20.405L11.0741 20.3944C11.0965 20.3796 11.1555 20.3521 11.2574 20.3268C11.4794 20.2676 11.6403 20.0795 11.6729 19.8597C11.6709 19.8385 11.6688 19.8195 11.6647 19.7984L10.9091 16.5835H11.8399L13.618 19.4179L18.71 19.2065C18.71 19.2065 18.5695 18.7986 18.3556 18.2047L17.6203 18.1983C17.3719 18.1962 17.1702 17.9849 17.1722 17.7249L17.1763 17.1711C17.1784 16.9132 17.382 16.704 17.6326 16.7061L17.8199 16.7103C17.714 16.4165 17.6061 16.1143 17.4961 15.8078L16.7771 15.8015C16.5286 15.7994 16.327 15.588 16.329 15.328L16.3331 14.7742C16.3351 14.5164 16.5388 14.3071 16.7893 14.3092H16.9584C16.9584 14.3092 16.6305 13.2566 16.4858 12.8508C16.3942 12.5908 16.5775 12.3182 16.8423 12.3182H17.3413C17.7548 12.3224 18.1418 12.5253 18.3862 12.8698L22.2561 18.5344C22.2866 18.5767 22.3213 18.6105 22.36 18.6422H22.3702C22.4659 18.7162 22.5799 18.7585 22.7001 18.7563C22.7001 18.7563 26.2075 18.6845 26.9713 18.7014C27.7371 18.7183 29.9857 19.6081 30 20.9249C30 20.9355 30 20.9461 30 20.9566C30 20.9672 30 20.9778 30 20.9884C29.9857 22.303 27.7371 23.1929 26.9733 23.2098C26.2095 23.2246 22.7022 23.1548 22.7022 23.1548C22.582 23.1548 22.4659 23.1971 22.3722 23.269H22.362C22.3233 23.3007 22.2866 23.3366 22.2581 23.3768L18.3882 29.0413C18.1438 29.3859 17.7548 29.5909 17.3433 29.5909H16.8443C16.5795 29.593 16.3962 29.3203 16.4879 29.0646C16.6345 28.6588 16.9604 27.6019 16.9604 27.6019H16.7914C16.5429 27.6062 16.3372 27.399 16.3351 27.1412L16.331 26.5874C16.329 26.3295 16.5286 26.1161 16.7791 26.1139L17.4981 26.1076C17.6081 25.8011 17.822 25.2051 17.822 25.2051L17.6346 25.2093C17.3861 25.2114 17.1804 25.0043 17.1784 24.7443L17.1743 24.1905C17.1722 23.9327 17.3719 23.7192 17.6224 23.7171L18.3577 23.7107C18.5715 23.1147 18.7121 22.7089 18.7121 22.7089L13.618 22.4975L11.8399 25.3319H10.9091L11.6647 22.117V22.1149Z" fill="#C3ABE9"/>
</g>
</svg>
